HIERARCHY
ROOT ui
{
	 OFFSET 0 0 0
	 CHANNELS 3 XPosition YPosition Z Position
	 EndSite
	 {
	 OFFSET 0 -1 0
	 }
}
ROOT li
{
	 OFFSET 0 0 0
	 CHANNELS 3 XPosition YPosition Z Position
	 EndSite
	 {
	 OFFSET 0 -1 0
	 }
}
ROOT ul
{
	 OFFSET 0 0 0
	 CHANNELS 3 XPosition YPosition Z Position
	 EndSite
	 {
	 OFFSET 0 -1 0
	 }
}
ROOT ll
{
	 OFFSET 0 0 0
	 CHANNELS 3 XPosition YPosition Z Position
	 EndSite
	 {
	 OFFSET 0 -1 0
	 }
}
ROOT tt
{
	 OFFSET 0 0 0
	 CHANNELS 3 XPosition YPosition Z Position
	 EndSite
	 {
	 OFFSET 0 -1 0
	 }
}
ROOT tb
{
	 OFFSET 0 0 0
	 CHANNELS 3 XPosition YPosition Z Position
	 EndSite
	 {
	 OFFSET 0 -1 0
	 }
}
ROOT td
{
	 OFFSET 0 0 0
	 CHANNELS 3 XPosition YPosition Z Position
	 EndSite
	 {
	 OFFSET 0 -1 0
	 }
}
ROOT v
{
	 OFFSET 0 0 0
	 CHANNELS 3 XPosition YPosition Z Position
	 EndSite
	 {
	 OFFSET 0 -1 0
	 }
}
ROOT bn
{
	 OFFSET 0 0 0
	 CHANNELS 3 XPosition YPosition Z Position
	 EndSite
	 {
	 OFFSET 0 -1 0
	 }
}
MOTION
Frames: 24
Frame Time: 0.002
0.0018104699850082398	-1.243700012564659E-4	0		0.43115231323242187	-2.415280517578125	0		-1.062237548828125	0.00956513786315918	0		-0.7981764526367188	-2.640969970703125	0		1.2785084228515624	-0.70171923828125	0		2.936216796875	-0.059462814331054686	0		4.422390625	0.111495361328125	0		5.75102099609375	0.1699327850341797	0		-0.03631389236450195	5.96920361328125	0		
0.0020912261009216307	-1.841759979724884E-4	0		0.42084451293945313	-2.409049072265625	0		-1.0701109619140625	0.0025626819133758544	0		-0.79961572265625	-2.64207666015625	0		1.275781494140625	-0.7055657348632812	0		2.947656494140625	-0.05243276596069336	0		4.41852685546875	0.1060305633544922	0		5.7512822265625	0.17052969360351564	0		-0.03671499252319336	5.9691396484375	0		
-6.696259975433349E-4	-0.0031804800033569335	0		0.42818661499023436	-2.42021484375	0		-1.1457662353515625	0.005048264026641846	0		-0.800046142578125	-2.6442109375	0		1.27616845703125	-0.70547998046875	0		2.91113037109375	-0.04433810424804688	0		4.4229501953125	0.11239418792724609	0		5.75634521484375	0.16103099060058593	0		-0.0513472900390625	5.9583828125	0		
0.002723658084869385	-3.129990100860596E-4	0		0.4329071044921875	-2.4153193359375	0		-1.1344635009765625	0.0036070289611816408	0		-0.799407958984375	-2.644370849609375	0		1.2824461669921876	-0.7115262451171875	0		2.91146337890625	-0.044062477111816406	0		4.4232646484375	0.11284722137451172	0		5.761828125	0.16952900695800782	0		-0.036503063201904294	5.9679794921875	0		
0.00716050910949707	0.00353159499168396	0		0.4204961242675781	-2.41705322265625	0		-1.125962646484375	0.010232382774353028	0		-0.8167041015625	-2.642138916015625	0		1.2921165771484375	-0.7006444702148438	0		2.945723876953125	-0.04853396224975586	0		4.409583984375	0.11259590911865235	0		5.76633251953125	0.17803779602050782	0		-0.16735580444335937	5.94574755859375	0		
0.007531837940216064	0.003464185953140259	0		0.4362208557128906	-2.413400634765625	0		-1.0565216064453125	0.012541231155395507	0		-0.7929778442382812	-2.639797607421875	0		1.2836119384765625	-0.698373779296875	0		2.931299560546875	-0.03895020294189453	0		4.42326513671875	0.12773444366455078	0		5.75672998046875	0.18082958984375	0		-0.16960389709472656	5.94770361328125	0		
0.0038360519409179686	-5.161030292510987E-4	0		0.42499981689453126	-2.4071650390625	0		-1.0642821044921875	0.005534771919250488	0		-0.7974137573242187	-2.64484130859375	0		1.283795654296875	-0.7113025512695312	0		2.933434326171875	-0.050747093200683595	0		4.42021044921875	0.10820601654052735	0		5.75292919921875	0.1734617919921875	0		-0.037381004333496094	5.96776318359375	0		
0.004239911079406738	-5.84194004535675E-4	0		0.43136465454101564	-2.420316650390625	0		-1.0679638671875	0.001446303963661194	0		-0.7967444458007813	-2.64498974609375	0		1.27533740234375	-0.7080494995117188	0		2.93384326171875	-0.05052111434936524	0		4.420603515625	0.10858123779296874	0		5.7533154296875	0.17397079467773438	0		-0.03855453109741211	5.9687119140625	0		
-0.07228649139404297	0.002993567943572998	0		0.41898638916015624	-2.42106689453125	0		-1.1394273681640625	0.007815890789031983	0		-0.7862780151367188	-2.65434521484375	0		1.284750732421875	-0.7111905517578125	0		2.939110107421875	-0.057420127868652346	0		4.4251337890625	0.11484008026123046	0		5.76366748046875	0.1722281494140625	0		-0.03674440383911133	5.96659716796875	0		
0.005074901103973389	-7.218629717826844E-4	0		0.4387835083007813	-2.4135068359375	0		-1.1239671630859376	0.0093278226852417	0		-0.8164706420898438	-2.646823974609375	0		1.288297119140625	-0.708213623046875	0		2.92983740234375	-0.04302581787109375	0		4.42967236328125	0.12106649780273437	0		5.76407421875	0.17265684509277343	0		-0.17027694702148438	5.9473623046875	0		
0.005510510921478272	-7.924110293388366E-4	0		0.43940847778320313	-2.413543212890625	0		-1.0585469970703125	0.007789330959320068	0		-0.78294091796875	-2.652658203125	0		1.3076990966796875	-0.7125857543945312	0		2.93997705078125	-0.05707586669921875	0		4.42597216796875	0.11542945098876953	0		5.758751953125	0.1851629180908203	0		-0.1703081817626953	5.94727783203125	0		
0.0059687747955322265	-8.649079799652099E-4	0		0.4628834228515625	-2.421070068359375	0		-1.066235595703125	8.126810193061828E-4	0		-0.7941452026367187	-2.645533935546875	0		1.28036181640625	-0.7049759521484374	0		2.939693115234375	-0.04492328262329102	0		4.42571875	0.12968621826171875	0		5.76815283203125	0.18330560302734375	0		-0.05304108810424805	5.9567158203125	0		
0.006458333969116211	-9.398249983787537E-4	0		0.4365731201171875	-2.41854736328125	0		-1.06574609375	6.704519987106323E-4	0		-0.7955313110351563	-2.647616455078125	0		1.2998070068359375	-0.70937060546875	0		2.931229736328125	-0.04262468719482422	0		4.42277880859375	0.10995646667480469	0		5.764462890625	0.17567855834960938	0		-0.03769690704345703	5.967318359375	0		
0.003923949003219605	-0.003953608036041259	0		0.4470653381347656	-2.4268095703125	0		-1.1302037353515626	0.00190025794506073	0		-0.8179349365234375	-2.651254150390625	0		1.2842518310546875	-0.7150382690429687	0		2.8997880859375	-0.040866558074951174	0		4.40443115234375	0.11652313995361328	0		5.76015087890625	0.18402505493164062	0		-0.03652248382568359	5.9662177734375	0		
0.011641656875610352	0.0028178091049194335	0		0.42694970703125	-2.417429443359375	0		-1.121486572265625	0.008595199584960937	0		-0.7673909301757813	-2.659422119140625	0		1.2879422607421875	-0.71111962890625	0		2.950246337890625	-0.046853065490722656	0		4.43694873046875	0.1139872817993164	0		5.77550048828125	0.17391400146484376	0		-0.16673817443847655	5.94386865234375	0		
0.012261800765991211	0.0027358760833740233	0		0.43294384765625	-2.40460107421875	0		-1.1249495849609374	0.0045497422218322755	0		-0.8124171752929688	-2.647576171875	0		1.2885927734375	-0.7111473388671875	0		2.90919189453125	-0.030933893203735352	0		4.432732421875	0.1221963882446289	0		5.761326171875	0.18438897705078125	0		-0.16832823181152343	5.94582080078125	0		
0.012931546211242676	0.0026519920825958253	0		0.4394083251953125	-2.4187919921875	0		-1.059273193359375	0.00406501817703247	0		-0.7926539306640625	-2.648087646484375	0		1.280353515625	-0.7079967041015625	0		2.933627685546875	-0.04241031265258789	0		4.42444189453125	0.12446308135986328	0		5.753033203125	0.18670462036132812	0		-0.036404407501220704	5.966986328125	0		
0.006504951953887939	-0.004286516189575196	0		0.4381634521484375	-2.420822021484375	0		-1.1386004638671876	0.0026144940853118897	0		-0.8277796630859375	-2.64444921875	0		1.2869471435546875	-0.7151654663085938	0		2.92028759765625	-0.0451089973449707	0		4.42998779296875	0.11641722106933594	0		5.75853515625	0.1767022247314453	0		-0.05110592651367187	5.95621435546875	0		
0.010329134941101074	-0.0014387450218200683	0		0.44103741455078127	-2.418940673828125	0		-1.051898681640625	-0.0012998989820480348	0		-0.78020068359375	-2.65753955078125	0		1.2877301025390624	-0.7152172241210938	0		2.948919921875	-0.05169539642333985	0		4.43557861328125	0.10835462188720703	0		5.7634580078125	0.18469570922851564	0		-0.0343123893737793	5.96578759765625	0		
0.011128941535949706	-0.0015305739641189575	0		0.45481588745117185	-2.423290771484375	0		-1.1238125	0.013096519470214844	0		-0.80238720703125	-2.660173095703125	0		1.2916317138671876	-0.711338134765625	0		2.92712158203125	-0.032233917236328125	0		4.4308349609375	0.1305013885498047	0		5.7642529296875	0.18475790405273437	0		-0.033672344207763674	5.96569482421875	0		
0.016039566040039064	0.002290956974029541	0		0.4448524475097656	-2.41614697265625	0		-1.052103759765625	0.006498775005340576	0		-0.7872046508789062	-2.64658203125	0		1.2924776611328126	-0.7114006958007812	0		2.95465380859375	-0.046814018249511716	0		4.4364921875	0.12241484832763672	0		5.77407470703125	0.18461968994140626	0		-0.18062620544433594	5.936662109375	0		
0.012802051544189454	-0.001721637010574341	0		0.44369207763671875	-2.419191162109375	0		-1.1312835693359375	0.006038936138153076	0		-0.7883388061523438	-2.6486552734375	0		1.2902567138671874	-0.715404052734375	0		2.949646240234375	-0.03971844100952148	0		4.43321044921875	0.11650649261474609	0		5.76595849609375	0.18684486389160157	0		-0.04849225997924805	5.9558359375	0		
0.010586301803588867	-0.004757030010223389	0		0.44255154418945314	-2.42123779296875	0		-1.0585570068359376	-5.777159929275513E-4	0		-0.7915152587890625	-2.65268798828125	0		1.28526513671875	-0.7083505249023437	0		2.941536376953125	-0.03756401062011719	0		4.429220703125	0.12461022186279297	0		5.7709443359375	0.19379225158691407	0		-0.06200636672973633	5.945029296875	0		
-0.0624647102355957	0.0016761529445648194	0		0.4283760986328125	-2.424015869140625	0		-1.11865234375	0.0035626161098480224	0		-0.7757333984375	-2.65811474609375	0		1.291964111328125	-0.7155440063476562	0		2.915496826171875	-0.03103944778442383	0		4.43488037109375	0.11650794219970703	0		5.77658203125	0.18472018432617188	0		-0.04512681198120117	5.9535947265625	0		
